<svg xmlns="http://www.w3.org/2000/svg" xmlns:xlink="http://www.w3.org/1999/xlink" width="814.018" height="628.04" viewBox="0 0 814.018 628.04"><defs><style>.a{fill:#e33067;opacity:0.113;}.ay,.b{fill:#f8a19f;}.ar,.av,.c{fill:#fff;}.d{fill:#ffbfa2;}.ad,.e,.u{opacity:0.35;}.f{opacity:0.57;}.ad,.ao,.f,.i,.k,.q,.u{mix-blend-mode:multiply;isolation:isolate;}.g{fill:#fca70c;}.h{fill:#b1affd;}.i{opacity:0.15;}.j{opacity:0.26;}.k{opacity:0.62;}.l{fill:#d5dbda;}.m{fill:#efefef;}.n{fill:#f24e40;}.o{fill:#cfcfff;}.p{fill:#ffece3;}.q{fill:#c4c3fc;opacity:0.55;}.r{fill:#e72f65;}.s{fill:#f15038;}.t{fill:url(#a);}.u{fill:#5851bc;}.bm,.v{fill:url(#b);}.w{opacity:0.412;}.x{fill:#f76967;}.y{opacity:0.857;}.z{fill:#f9c110;}.aa{fill:#454545;}.ab{fill:#ffb9b0;}.ac{fill:#ff8b4f;}.ad{fill:#7762ef;}.ae{fill:#453087;}.af{fill:#f2f2f2;}.ag{fill:url(#f);}.ah{fill:url(#h);}.ai{fill:#f14848;}.aj{fill:#ea4242;}.ak{fill:#ff8350;}.al,.bk{fill:none;}.al{stroke:#ea4242;stroke-linecap:round;stroke-linejoin:round;stroke-width:0.75px;}.am{fill:#ed9c80;}.an{fill:#38287c;}.ao{fill:#ce4a30;opacity:0.25;}.ap{fill:#b1133f;}.aq{fill:url(#i);}.ar{stroke:#b1133f;}.ar,.bk,.bm{stroke-miterlimit:10;}.ar,.av,.ax{opacity:0.45;}.as{fill:#f4c2be;}.at{fill:#483a99;}.au{fill:#6b6a76;}.aw{fill:#fdf6f0;}.ay{opacity:0.385;}.az{fill:#b3a7e3;}.ba{fill:#f2a181;}.bb{fill:#5e5dbb;}.bc{fill:#b4b4db;}.bd{fill:#ed953e;}.be{fill:#170d54;}.bf{fill:#d07f30;}.bg{fill:#ffbe9d;}.bh{fill:#e53168;}.bi{fill:#ffede5;}.bj{fill:#fd8aad;}.bk{stroke:#f2a181;stroke-width:0.25px;}.bl{opacity:0.3;}.bm{stroke:rgba(0,0,0,0);}.bn{fill:#fefefe;}.bo{opacity:0.497;}.bp{opacity:0.5;}</style><linearGradient id="a" x1="0.5" x2="0.5" y2="1" gradientUnits="objectBoundingBox"><stop offset="0" stop-color="#ffc85b"/><stop offset="1" stop-color="#fa8f41"/></linearGradient><linearGradient id="b" x1="0.5" x2="0.5" y2="1" gradientUnits="objectBoundingBox"><stop offset="0.001" stop-color="#ff974f"/><stop offset="1" stop-color="#ff5652"/></linearGradient><linearGradient id="f" x1="0.5" x2="0.5" y2="1" gradientUnits="objectBoundingBox"><stop offset="0" stop-color="#954993"/><stop offset="1" stop-color="#b92c70"/></linearGradient><linearGradient id="h" x1="1" x2="-0.16" y2="0.831" gradientUnits="objectBoundingBox"><stop offset="0" stop-color="#ff974f"/><stop offset="1" stop-color="#ff5652"/></linearGradient><linearGradient id="i" x1="0.645" y1="1" x2="0.5" y2="0.06" gradientUnits="objectBoundingBox"><stop offset="0" stop-color="#e53168"/><stop offset="1" stop-color="#f15038"/></linearGradient></defs><g transform="translate(-313.972 -131.651)"><path class="a" d="M1121.38,507.455c-14.084-39.268-36.263-51.216-57.359-76.405-25.764-30.762-43.142-53.124-36.453-92.689,10.932-64.654,15.611-225.9-155.554-204.825-61.35,7.556-109.829,54.568-145.1,101.5-30.009,39.933-83.992,43.456-127.446,52.765C546.081,299.238,491.7,316.517,442.3,341.832c-101.729,52.14-132.113,127.1-127.963,223,1.252,28.975,5.354,74.614,54.3,128.018,66.063,72.079,162.06,81.733,277.6,48.629,26.448-7.578,51.447-19.462,77.465-28.408a365.513,365.513,0,0,1,83.6-18.153c66.359-6.416,135.149,5.188,198.808-14.625a209.747,209.747,0,0,0,88.916-55.145C1125.432,593.3,1136.245,548.9,1121.38,507.455Z" transform="translate(0 0)"/><g transform="translate(368.635 638.229)"><path class="b" d="M336.984,362.07c0,9.471,120.191,17.155,268.469,17.155,148.256,0,268.448-7.684,268.448-17.155S753.71,344.91,605.453,344.91C457.175,344.91,336.984,352.592,336.984,362.07Z" transform="translate(-336.984 -344.91)"/></g><path class="b" d="M484.87,367.265c0,5.929-30.512,10.735-68.151,10.735s-68.151-4.806-68.151-10.735,30.512-10.734,68.151-10.734S484.87,361.336,484.87,367.265Z" transform="translate(47.585 309.302)"/><ellipse class="b" cx="114.348" cy="8.494" rx="114.348" ry="8.494" transform="translate(350.47 646.315)"/><g transform="translate(524.246 319.699)"><rect class="c" width="118.98" height="32.007" transform="translate(146.111 286.286)"/><rect class="c" width="412.456" height="296.735" rx="9.387" transform="translate(0)"/><rect class="d" width="388.16" height="257.444" rx="5.768" transform="translate(11.521 10.82)"/><path class="c" d="M7.322,0H213.939a7.322,7.322,0,0,1,7.322,7.322V20.178a0,0,0,0,1,0,0H0a0,0,0,0,1,0,0V7.322A7.322,7.322,0,0,1,7.322,0Z" transform="translate(94.97 315.509)"/><g class="e" transform="translate(104.217 28.601)"><rect class="c" width="271.598" height="182.561" rx="5.01"/></g><g class="f" transform="translate(104.216 28.601)"><g transform="translate(17.999 27.607)"><g transform="translate(7.813 105.753)"><rect class="g" width="11.831" height="29.701"/></g><g transform="translate(34.472 79.679)"><rect class="h" width="11.831" height="55.775"/></g><g transform="translate(61.132 85.446)"><rect class="g" width="11.831" height="50.007"/></g><g transform="translate(87.791 57.212)"><rect class="h" width="11.831" height="78.242"/></g><g class="i" transform="translate(34.472 79.679)"><rect class="j" width="5.43" height="55.775"/></g><g class="i" transform="translate(7.813 105.753)"><rect class="j" width="5.43" height="29.701"/></g><g class="k" transform="translate(87.791 57.212)"><rect class="j" width="5.43" height="78.242"/></g><g class="i" transform="translate(61.132 85.446)"><rect class="j" width="5.43" height="50.007"/></g><g transform="translate(0 30.885)"><path class="l" d="M559.825,360.224H453.943V247.48h1.615v111.13H559.825Z" transform="translate(-453.943 -247.48)"/></g><g transform="translate(9.797 40.417)"><path class="l" d="M459.146,302.919l-1.079-1.2,27.7-24.871,25.655,5.573,27.78-30.927,1.2,1.079L511.995,284.2l-25.765-5.6Z" transform="translate(-458.067 -251.492)"/></g><g transform="translate(86.475 35.848)"><path class="l" d="M498.181,259.787l-7.833-7.512,10.113-2.706Z" transform="translate(-490.348 -249.569)"/></g><g transform="translate(115.908 103.646)"><rect class="h" width="8.125" height="8.125"/><g transform="translate(0 14.235)"><rect class="g" width="8.125" height="8.125"/></g><g transform="translate(10.363 17.743)"><rect class="m" width="25.754" height="4.617"/></g><g transform="translate(10.363 3.508)"><rect class="m" width="25.754" height="4.617"/></g></g><g transform="translate(163.689 103.646)"><rect class="h" width="8.125" height="8.125"/><g transform="translate(0 14.235)"><rect class="g" width="8.125" height="8.125"/></g><g transform="translate(10.363 17.743)"><rect class="m" width="25.754" height="4.617"/></g><g transform="translate(10.363 3.508)"><rect class="m" width="25.754" height="4.617"/></g></g><g transform="translate(206.715 103.646)"><rect class="h" width="8.125" height="8.125"/><g transform="translate(0 14.235)"><rect class="g" width="8.125" height="8.125"/></g><g transform="translate(10.363 17.743)"><rect class="m" width="16.948" height="4.617"/></g><g transform="translate(10.363 3.508)"><rect class="m" width="16.948" height="4.617"/></g></g><g transform="translate(117.429 26.018)"><rect class="m" width="116.597" height="2.12"/></g><rect class="m" width="234.026" height="4.852"/><g transform="translate(117.079 32.611)"><rect class="m" width="116.947" height="2.12"/></g><g transform="translate(117.079 19.426)"><rect class="m" width="116.947" height="2.12"/></g><g transform="translate(117.079 39.203)"><rect class="m" width="116.947" height="2.12"/></g><g transform="translate(117.079 45.796)"><rect class="m" width="116.947" height="2.119"/></g><g transform="translate(117.079 52.388)"><rect class="m" width="116.947" height="2.12"/></g><g transform="translate(117.079 58.981)"><rect class="m" width="116.947" height="2.12"/></g><g transform="translate(117.079 65.573)"><rect class="m" width="116.947" height="2.12"/></g><g transform="translate(117.079 72.165)"><rect class="m" width="116.947" height="2.12"/></g><g transform="translate(131.397 78.758)"><rect class="m" width="102.629" height="2.12"/></g></g><path class="n" d="M708.023,222.443l-249.756.413c-13.424-1.483-12.4,4.16-11.9,11.9v10.416h271.6V229.554C717.964,222.981,714.6,222.443,708.023,222.443Z" transform="translate(-446.366 -222.856)"/><path class="o" d="M549.971,229.711a3.431,3.431,0,1,1-3.43-3.43A3.431,3.431,0,0,1,549.971,229.711Z" transform="translate(-313.306 -218.145)"/><circle class="o" cx="3.431" cy="3.431" r="3.431" transform="translate(243.789 8.135)"/><circle class="p" cx="3.431" cy="3.431" r="3.431" transform="translate(257.775 8.135)"/></g><g transform="translate(32.071 61.873)"><g transform="translate(0 7.109)"><rect class="q" width="271.597" height="182.561" rx="5.01"/></g><g transform="translate(5.51 7.109)"><rect class="c" width="271.597" height="175.452" rx="5.01"/></g><g transform="translate(23.508 27.607)"><g transform="translate(7.813 105.753)"><rect class="g" width="11.831" height="29.701"/></g><g transform="translate(34.472 79.679)"><rect class="r" width="11.831" height="55.775"/></g><g transform="translate(61.132 85.446)"><rect class="g" width="11.831" height="50.007"/></g><g transform="translate(87.791 57.212)"><rect class="r" width="11.831" height="78.242"/></g><g class="i" transform="translate(34.472 79.679)"><rect class="j" width="5.43" height="55.775"/></g><g class="i" transform="translate(7.813 105.753)"><rect class="j" width="5.43" height="29.701"/></g><g class="k" transform="translate(87.791 57.212)"><rect class="j" width="5.43" height="78.242"/></g><g class="i" transform="translate(61.132 85.446)"><rect class="j" width="5.43" height="50.007"/></g><g transform="translate(0 40.957)"><path class="l" d="M531.773,368.4H425.891V265.727h1.615V366.785H531.773Z" transform="translate(-425.891 -265.727)"/></g><g transform="translate(9.797 40.417)"><path class="l" d="M431.094,316.926l-1.079-1.2,27.7-24.871,25.656,5.573,27.78-30.927,1.2,1.079L483.942,298.2l-25.765-5.6Z" transform="translate(-430.015 -265.5)"/></g><g transform="translate(86.475 35.848)"><path class="l" d="M470.128,273.794l-7.833-7.512,10.113-2.706Z" transform="translate(-462.295 -263.576)"/></g><g transform="translate(115.908 103.646)"><rect class="r" width="8.125" height="8.125"/><g transform="translate(0 14.235)"><rect class="g" width="8.125" height="8.125"/></g><g transform="translate(10.363 17.743)"><rect class="m" width="25.754" height="4.617"/></g><g transform="translate(10.363 3.508)"><rect class="m" width="25.754" height="4.617"/></g></g><g transform="translate(163.69 103.646)"><rect class="r" width="8.125" height="8.125"/><g transform="translate(0 14.235)"><rect class="g" width="8.125" height="8.125"/></g><g transform="translate(10.363 17.743)"><rect class="m" width="25.754" height="4.617"/></g><g transform="translate(10.363 3.508)"><rect class="m" width="25.754" height="4.617"/></g></g><g transform="translate(206.715 103.646)"><rect class="r" width="8.125" height="8.125"/><g transform="translate(0 14.235)"><rect class="g" width="8.125" height="8.125"/></g><g transform="translate(10.363 17.743)"><rect class="m" width="16.948" height="4.617"/></g><g transform="translate(10.363 3.508)"><rect class="m" width="16.948" height="4.617"/></g></g><g transform="translate(117.429 26.018)"><rect class="m" width="116.597" height="2.12"/></g><rect class="m" width="234.026" height="4.852"/><g transform="translate(117.079 32.611)"><rect class="m" width="116.947" height="2.12"/></g><g transform="translate(117.079 19.426)"><rect class="m" width="116.947" height="2.12"/></g><g transform="translate(117.079 39.203)"><rect class="m" width="116.947" height="2.12"/></g><g transform="translate(117.079 45.796)"><rect class="m" width="116.947" height="2.119"/></g><g transform="translate(117.079 52.388)"><rect class="m" width="116.947" height="2.12"/></g><g transform="translate(117.079 58.981)"><rect class="m" width="116.947" height="2.12"/></g><g transform="translate(117.079 65.573)"><rect class="m" width="116.947" height="2.12"/></g><g transform="translate(117.079 72.165)"><rect class="m" width="116.947" height="2.12"/></g><g transform="translate(131.397 78.758)"><rect class="m" width="102.629" height="2.12"/></g></g><path class="s" d="M678.011,236.863h-247.8a11.9,11.9,0,0,0-11.9,11.9V259.18h271.6V248.764A11.9,11.9,0,0,0,678.011,236.863Z" transform="translate(-412.803 -236.863)"/><path class="p" d="M521.919,243.718a3.431,3.431,0,1,1-3.432-3.43A3.433,3.433,0,0,1,521.919,243.718Z" transform="translate(-279.743 -232.152)"/><path class="p" d="M527.808,243.718a3.432,3.432,0,1,1-3.432-3.43A3.433,3.433,0,0,1,527.808,243.718Z" transform="translate(-271.646 -232.152)"/><path class="p" d="M533.694,243.718a3.431,3.431,0,1,1-3.43-3.43A3.432,3.432,0,0,1,533.694,243.718Z" transform="translate(-263.548 -232.152)"/><g transform="translate(97.173 60.93)"><path class="t" d="M303.834,262.868a1.778,1.778,0,1,1,2.033-1.759.924.924,0,0,0,1.848,0,3.676,3.676,0,0,0-2.956-3.5v-.481a.924.924,0,0,0-1.848,0v.481a3.676,3.676,0,0,0-2.956,3.5,3.755,3.755,0,0,0,3.88,3.607,1.778,1.778,0,1,1-2.033,1.759.924.924,0,0,0-1.848,0,3.676,3.676,0,0,0,2.956,3.5v.4a.924.924,0,0,0,1.848,0v-.4a3.676,3.676,0,0,0,2.956-3.5A3.755,3.755,0,0,0,303.834,262.868Z" transform="translate(-299.954 -256.201)"/></g></g><path class="u" d="M611.174,210.9h-63.6q.652,30.935,1.05,61.877c.04,3.155,0,6.409-1.15,9.324l-.1,0c-.843-.045-.47.219-.76,1.727,0,.021-.014.047-.019.069-2.573,4.2-7.592,6.5-12.478,7.578a1.239,1.239,0,0,0,.078.682,1.563,1.563,0,0,0-.492,1.922c.3.689,3.953,1.622,8.917,1.088a23.679,23.679,0,0,0,5.509-1.527,8.553,8.553,0,0,0,2.029-1.383,7.008,7.008,0,0,0,1.86-.449l.2.19,5.692-2.478s-.622-3.592-1.114-5.461a3.25,3.25,0,0,0-.375-.879,260.87,260.87,0,0,0,11.167-39.691c-1.036,16.754-7.055,50.786-7.5,51.957a8.735,8.735,0,0,1-7.233,5.079c-1.347.112-7.972-.271-7.257,2.777.171.727,3.611,2.283,8.594,2.615a23.6,23.6,0,0,0,5.689-.549,10.555,10.555,0,0,0,3.547-1.931l.767,1.024L570.229,303s-.01-1.57-.047-3.461a7.7,7.7,0,0,0-1.292-3.68l.083-3.432,3.344-.394s6.718-21.728,9.908-29.118a65.07,65.07,0,0,0,3.611-9.257c.981-3.77,1.074-7.7,1.385-11.583a102.421,102.421,0,0,1,3.886-20.911,3.084,3.084,0,0,1,.568-1.221,3.241,3.241,0,0,1,2.2-.767c8.549-.784,12.469.67,17.818-.988,7.053-2.188,7.8-5.387,8.145-5.542A22.2,22.2,0,0,0,611.174,210.9Z" transform="translate(-222.229 -210.695)"/><path class="u" d="M428.416,261.751c-2.307,2.544-5.026,7.962-6.133,10.295-1.169,2.3-2.432,3.6-5.72,5.145-4.537,2.076-9.4,4.062-14.07,5.9v12.046c9.5-5.713,18.1-11.043,18.243-11.1,7.262,2.777,13.336-3.261,15.283-7.616.874-1.955-.437-2.753-.5-3.682-.033-.485.591-3.311.5-3.675-.568-2.544-7.4-.321-6.829-1.532a8.678,8.678,0,0,1,2.843-4.259c3.345-2.283,5.908-4.815,5.908-5.775C437.939,255.843,429.207,260.882,428.416,261.751Z" transform="translate(-402.493 -147.065)"/></g><g transform="translate(385.132 471.602)"><rect class="v" width="160.363" height="185.449" rx="6.949"/><g class="w" transform="translate(14.834 19.409)"><rect class="x" width="135.623" height="38.091" rx="1.773"/><rect class="x" width="34.873" height="24.18" rx="1.773" transform="translate(0 51.599)"/><rect class="x" width="34.873" height="24.18" rx="1.773" transform="translate(50.375 51.599)"/><rect class="x" width="34.873" height="24.18" rx="1.773" transform="translate(100.75 51.599)"/><rect class="x" width="34.873" height="24.179" rx="1.773" transform="translate(0 90.47)"/><rect class="x" width="34.873" height="24.179" rx="1.773" transform="translate(50.375 90.47)"/><rect class="x" width="34.873" height="24.18" rx="1.773" transform="translate(0 129.339)"/><rect class="x" width="34.873" height="24.18" rx="1.773" transform="translate(50.375 129.339)"/><rect class="t" width="34.873" height="63.049" rx="1.773" transform="translate(100.75 90.47)"/></g><g class="y" transform="translate(12.369 16.946)"><path class="c" d="M573.518,296.213A4.212,4.212,0,0,1,577.73,292h127.2a4.212,4.212,0,0,1,4.211,4.212v29.667a4.211,4.211,0,0,1-4.211,4.212H577.73" transform="translate(-573.518 -292.001)"/><rect class="c" width="34.873" height="24.18" rx="1.773" transform="translate(0.001 51.599)"/><rect class="c" width="34.873" height="24.18" rx="1.773" transform="translate(50.376 51.599)"/><rect class="c" width="34.873" height="24.18" rx="1.773" transform="translate(100.751 51.599)"/><rect class="c" width="34.873" height="24.18" rx="1.773" transform="translate(0.001 90.469)"/><rect class="c" width="34.873" height="24.18" rx="1.773" transform="translate(50.376 90.469)"/><rect class="c" width="34.873" height="24.18" rx="1.773" transform="translate(0.001 129.339)"/><rect class="c" width="34.873" height="24.18" rx="1.773" transform="translate(50.376 129.339)"/></g><path class="t" d="M1.773,0H33.1a1.773,1.773,0,0,1,1.773,1.773v59.5A1.773,1.773,0,0,1,33.1,63.049H1.773A1.773,1.773,0,0,1,0,61.276V1.773A1.773,1.773,0,0,1,1.773,0Z" transform="translate(113.12 107.415)"/><path class="z" d="M618.4,391.388V336.763a4.211,4.211,0,0,1,4.212-4.212h26.45a4.2,4.2,0,0,1,1.47.278,4.2,4.2,0,0,0-3.934-2.744h-26.45a4.213,4.213,0,0,0-4.212,4.214v54.625a4.2,4.2,0,0,0,2.741,3.934A4.188,4.188,0,0,1,618.4,391.388Z" transform="translate(-502.812 -222.672)"/></g><g transform="translate(322.677 363.027)"><path class="aa" d="M393.291,239.378c3.185,5.5.435,13.02,3.649,18.5,1.287,2.195,3.466,3.922,4.083,6.39a5.57,5.57,0,0,1-8.01,6.273,6.809,6.809,0,0,0-1.238-.613c-1.589-.466-3.029.945-4.394,1.879a6.706,6.706,0,0,1-5.787,1.024c-2.468-.827-4-3.314-4.817-5.784-2.3-6.9-.665-14.461,1.458-21.421,1.062-3.478,2.63-7.335,6.041-8.6" transform="translate(-237.83 -218.084)"/><path class="ab" d="M460.259,276.163c.052.765,1.219,1.423.442,3.033-1.729,3.592-7.119,8.568-13.566,6.281-.28.1-35.612,20.524-38.334,20.524s-21.265-17.547-27.329-39.258c-1.447-5.181-.884-11.274,3.969-13.9,0,0,4.045.981,6.672,5.939,4.017,7.582,16.046,32.69,18.711,33.638,3.323-2.214,19.5-7.022,32.6-12.587,2.919-1.273,4.041-2.347,5.079-4.245.983-1.922,3.395-6.39,5.444-8.487.7-.717,8.454-4.87,8.454-3.506,0,.789-2.276,2.879-5.242,4.76a7.106,7.106,0,0,0-2.523,3.511c-.506,1,5.556-.834,6.06,1.264C460.786,273.431,460.233,275.764,460.259,276.163Z" transform="translate(-230.797 -196.335)"/><path class="ac" d="M384.716,252.577a15.915,15.915,0,0,1,10.552,8.183,33.015,33.015,0,0,1,1.437,3.3c1.881,4.789,4.471,9.122,6.352,13.908-2.573,2.076-5.687,3.031-8.309,4.007a17.751,17.751,0,0,1-7.734,1.038,3.912,3.912,0,0,1-1.3-.287,4.287,4.287,0,0,1-1.354-1.164q-1.208-1.386-2.352-2.827a7.763,7.763,0,0,1-1.58-2.7,8.208,8.208,0,0,1,.371-4.212" transform="translate(-231.486 -196.705)"/><path class="ad" d="M385.329,258.412a1.638,1.638,0,0,0-.606-.516,1.1,1.1,0,0,0-1.271.563,2.915,2.915,0,0,0-.264,1.475,20.129,20.129,0,0,0,.9,5.732l-.6,10.1.014.021a17.72,17.72,0,0,0,7.233-1.055c1.093-.406,2.271-.827,3.459-1.306C392.982,267.733,389.1,262.914,385.329,258.412Z" transform="translate(-227.476 -189.463)"/><path class="ab" d="M391.66,249.425s-.135,6.323.836,6.737a24.776,24.776,0,0,0,4.086,1.264l.064,13.084-17.445-2.63-12-6.68s12.473-4.136,12.583-5.378-.687-8.243-.687-8.243" transform="translate(-249.466 -203.579)"/><g transform="translate(111.819 139.5)"><path class="ab" d="M368.283,342.451l-.01.05c-4.772,22.628-2.5,53.715-3.563,70.749.249.069,6.485.85,6.485.85s14.761-71.8,17.44-85.553a19.447,19.447,0,0,0,.34-2.663c.644-10.347-8.682-10.875-13.936-2.321a35.8,35.8,0,0,0-2.4,4.618c-.3.675-.572,1.359-.86,2.088l0,.024a67.377,67.377,0,0,0-2.314,7.224l-.055.261c-.219.725-.4,1.459-.573,2.195l-.036.166C368.61,340.9,368.449,341.663,368.283,342.451Z" transform="translate(-364.71 -246.776)"/><path class="ab" d="M393.95,302.243c-.176,1.872-1.173,10.782-2.373,21.291-1.024,8.837-2.145,18.8-3.019,26.685-.648,5.915-1.124,10.632-1.323,12.853a28.783,28.783,0,0,1-.525,3.82v.05c-2.247,10.333-9.385,10.934-13.727,8.537a8.67,8.67,0,0,1-1.649-1.124,5.547,5.547,0,0,1-1.848-3.045v-.024c-.273-2.124-.549-5.019-.8-8.464v-.05c-.024-.024-.024-.024-.024-.05l-.026-.074c-.525-6.715-.974-15.352-1.373-23.764-.473-10.335-.774-20.3-.848-25.911-.026-.325-.026-.625-.05-.924-.076-17.222,15.751-28.255,25.586-22.913a2.506,2.506,0,0,1,.349.173,3.717,3.717,0,0,0,.375.226c1.124.748,1.5,3.318,1.523,6.264C394.25,297.948,394.1,300.295,393.95,302.243Z" transform="translate(-362.431 -287.783)"/><path class="ab" d="M370.082,323.84l-1.2-4.511c0,.024,0,.024.012.055a72.124,72.124,0,0,1-1.5,15.751l-.055.261c-.173.713-.354,1.47-.573,2.195l-.036.166a12.282,12.282,0,0,0-.511,2.311l-.01.05c-.014,2.045,4.342-7.038,5.34-9.162.124-.271.2-.425.2-.425l-1.178-4.732Z" transform="translate(-362.647 -244.393)"/></g><g transform="translate(140.321 138.748)"><path class="ab" d="M382.2,346.486v.05c-.451,23.692,6.865,51.551,8.8,68.761.235.007,5.977-.767,5.977-.767s1.093-72.586,1.169-86.928a21.721,21.721,0,0,0-.145-2.734c-1.176-10.449-9.654-8.658-12.929,1.152a42.4,42.4,0,0,0-1.38,5.19c-.15.746-.283,1.494-.416,2.29l0,.026c-.4,2.44-.687,5.036-.855,7.758l0,.276c-.074.774-.109,1.549-.143,2.323l0,.176C382.235,344.859,382.221,345.66,382.2,346.486Z" transform="translate(-369.177 -245.736)"/><path class="ab" d="M394.66,378.554a6.167,6.167,0,0,1-1.665-.727,4.746,4.746,0,0,1-2.178-2.565l0-.026c-.622-2.041-1.363-4.891-2.185-8.255-.019-.029-.019-.029-.017-.055l-.036-.085c-1.6-6.535-3.5-15.015-5.266-23.267-2.173-10.157-4.145-20-5.157-25.581-.081-.3-.955-4.368-1.014-4.668-3.036-17.307,10.464-28.583,20.274-25.286.14.047.261.09.382.133,1.974.791,2.52,7.73,2.965,12.419s3.777,53.288,4.611,62.074a35.1,35.1,0,0,1,.171,3.938C405.312,377.468,398.981,379.848,394.66,378.554Z" transform="translate(-376.709 -287.466)"/><path class="ab" d="M383.568,325.1l-1.85-4.188c0,.026,0,.026.019.052a80.539,80.539,0,0,1,1.328,16.036l0,.276c-.036.751-.069,1.551-.143,2.323l0,.176a14.257,14.257,0,0,0-.067,2.428v.05c.335,2.038,2.713-8.079,3.25-10.44.064-.3.107-.473.107-.473l-1.865-4.414Z" transform="translate(-369.819 -241.457)"/></g><path class="ae" d="M376.49,281.017s-12.7,16.139-11.4,32.355c.542,6.749,1.38,12.7,2.147,19.488.112.979,1.634,15.238,1.2,15.253,0,0,26.177,8.088,51.466-2.508,0-1.729,2.024-34.919-11.637-66.564A220.146,220.146,0,0,1,376.49,281.017Z" transform="translate(-252.497 -160.306)"/><path class="v" d="M415.247,281.576c-.1,4.623-2.561,7.437-6.088,11.333-.447.694-1.542,11-1.915,17.851-.195,3.566,1.328,5.806,0,6.1-5.079,4.43-23.379,8.017-31.773,1.972.879-7.452-2.459-23.868-4.71-32.215-.352-1.285-.66-2.371-.941-3.207-2.1-6.34-5.884-26.671-3.081-27.557.558-.176,1.425-.4,2.43-.708,4.387-1.323,10.87-3.6,10.87-3.6s3.8,11.25,13.69,12.609c5.4-2.223,4.922-9.048,4.858-12.186,1.765.487,2.542.972,8.012,2.592,1.532,2.211.209,6.825,2.687,13.7C409.9,269.974,415.368,275.944,415.247,281.576Z" transform="translate(-251.47 -198.123)"/><path class="ab" d="M401,238.829s1,12.222-1.086,18.628c-1.544,4.744-7.884,9.172-13.186,9.112-14.595,0-17.212-19.823-17.136-20.782s21.526-9.278,21.526-9.278Z" transform="translate(-246.181 -218.806)"/><path class="af" d="M383.456,288.237" transform="translate(-227.107 -147.657)"/><g transform="translate(159.869 306.654)"><path class="ag" d="M407.676,366.664c-5.2.936-10.746-.525-13.022-.131-1.881.321-6.713,1.546-8.521-.078s-1.518-7.361.561-8.126a7.459,7.459,0,0,0,1.349.325,14.2,14.2,0,0,0,6.15-.5c3.953,1.627,4.1,2.337,8.592,3.245a29.2,29.2,0,0,1,5.725,1.736C410.448,364.018,410.6,366.142,407.676,366.664Z" transform="translate(-384.938 -358.151)"/></g><g transform="translate(108.588 302.649)"><path class="ag" d="M381.292,371.271c-5.2-.877-8.5-3.756-10.775-4.152-1.879-.335-6.613-1.257-7.11-3.2-.368-1.442,1.062-7.44,3.276-7.456a7.59,7.59,0,0,0,1.159.763,14.236,14.236,0,0,0,5.958,1.6c3.171,2.867,3.069,3.585,6.991,5.955a29.191,29.191,0,0,1,4.8,3.57C387.116,369.846,384.226,371.765,381.292,371.271Z" transform="translate(-363.35 -356.465)"/></g><g transform="translate(50.681 56.058)"><path class="ab" d="M338.972,270.731l4.779-5.687,29.161,26.075s14.238-18.951,18.153-24.868c4.307-6.506,8.188-12.072,14.485-13.16,1.451.9-.489,24.265-1.247,24.83-8.8,6.582-25.918,27.814-31.363,28.918C366.653,308.113,338.972,270.731,338.972,270.731Z" transform="translate(-338.972 -252.055)"/><path class="ah" d="M381.414,252.655s-5.958.076-8.518,2.185-14.8,21.509-14.8,21.509a8.625,8.625,0,0,0,3.219,6.739,17.865,17.865,0,0,0,8.815,3.815s6.143-6.114,9.606-8.9c2.157-1.734,2.371,2.556,2.371,2.556l10.832-10.575Z" transform="translate(-312.681 -252.655)"/></g><path class="aa" d="M369.768,283.189c-.325-.173-.644-.361-.953-.546-1.672-1-3.209-2.048-3.912-3.948-1.014-2.739-1.5-6.941-.083-9.6.962-1.8,2.767-2.974,4-4.594,1.71-2.24,2.216-5.167,2.361-7.979s-.024-5.665.568-8.421c1.01-4.708,2.352-9.193,5.981-12.226,5.813-4.86,17.464-7.739,23.8-2.321,1.152.986,1.378,1.777,2.934,1.929a11.446,11.446,0,0,1,5.318,1.554c2.078,1.2,4.6,2.9,4.309,5.625a9.778,9.778,0,0,1-3.965,5.77,4.806,4.806,0,0,1-2.24.5c-2.47.047-4.52-1.558-6.946-1.3a4.617,4.617,0,0,0-3.041,1.689c-.874,1.078-.755,2.582-1.774,3.589-1.637,1.618-4.174,1.48-6.112,2.532a2.049,2.049,0,0,0-.836.689,2.2,2.2,0,0,0-.211,1.038l-.112,3.062c-.962-.423-1.062-1.791-1.855-2.48a2.2,2.2,0,0,0-2.779.178,4.661,4.661,0,0,0-1.34,2.665,7.661,7.661,0,0,0,.539,3.656c.634,2.081,2.418,3.955,3.858,2.58,1.045,1.537-.1,4.1-.135,5.839-.031,1.378,0,4.109,1.283,5.015,1.185.834,3.062.2,3.136,2.347.064,1.962-1.9,3.5-3.848,3.737s-3.877-.447-5.76-1-3.943-1-5.775-.283c-1.109.43-2.067,1.264-3.242,1.459A5.078,5.078,0,0,1,369.768,283.189Z" transform="translate(-253.953 -226.894)"/><path class="ab" d="M356.922,270.961s-6.853-5.494-7.321-7-.568-3.114-1.133-4.585a8.581,8.581,0,0,0-4.756-4.732c-1.717-.708-.876-1.29-2.717-.934-2.777.537-4.1,3.259-5.2,5.387-4.734,9.072,8.231,10.789,8.687,10.808.945.038,5.77,5.506,5.77,5.506" transform="translate(-294.095 -195.29)"/><g transform="translate(16.625 12.948)"><path class="ai" d="M335.3,269.493,340,272.626a1.294,1.294,0,0,0,1.827-.413l10.312-17.279-6.112-3.444-11.069,16.2A1.293,1.293,0,0,0,335.3,269.493Z" transform="translate(-310.751 -211.148)"/><path class="ai" d="M329.084,249.6l1.615,1.1,6.532-9.521-1.615-1.1c-2.3-1.568-5.622-.705-7.428,1.924h0C326.386,244.629,326.785,248.031,329.084,249.6Z" transform="translate(-321.301 -227.92)"/><path class="ai" d="M325.4,266.869l30.049,4.562,6.864-10-15.164-26.253Z" transform="translate(-323.587 -233.587)"/><path class="aj" d="M326.206,254.761l28.128,4.145,2.736-3.987L333.4,244.282Z" transform="translate(-322.475 -221.062)"/><path class="ak" d="M344.07,258.7h0a3.822,3.822,0,0,0,5.2-1.344l1.219-1.779a3.792,3.792,0,0,0-.625-5.311h0a3.823,3.823,0,0,0-5.2,1.344l-1.221,1.779A3.79,3.79,0,0,0,344.07,258.7Z" transform="translate(-299.853 -213.584)"/><path class="aj" d="M344.663,250.737l-1.216,1.777a3.554,3.554,0,1,0,5.82,3.965l1.219-1.774a3.962,3.962,0,0,0,.249-.418,3.491,3.491,0,1,1-5.77-3.931A4.034,4.034,0,0,0,344.663,250.737Z" transform="translate(-299.851 -212.709)"/><path class="ak" d="M325.466,268.775h0a2.243,2.243,0,0,0,3.05-.789l20.614-30.037a2.229,2.229,0,0,0-.368-3.121h0a2.242,2.242,0,0,0-3.05.791L325.1,265.656A2.229,2.229,0,0,0,325.466,268.775Z" transform="translate(-324.635 -234.507)"/><path class="aj" d="M349.289,234.883,332.122,259.9a2.246,2.246,0,0,1-3.05.791,1.864,1.864,0,0,1-.527-.572l-3.447,5.022a2.088,2.088,0,1,0,3.418,2.33l20.614-30.039A2.365,2.365,0,0,0,349.289,234.883Z" transform="translate(-324.635 -233.989)"/><path class="ai" d="M340.629,261.73l1.945,1.326c2.869,1.957,7.022.881,9.274-2.4l1.934-2.815c2.252-3.283,1.751-7.53-1.119-9.485l-1.945-1.325c-2.869-1.957-7.022-.881-9.274,2.4l-1.934,2.815C337.258,255.528,337.759,259.775,340.629,261.73Z" transform="translate(-306.115 -218.628)"/><path class="aj" d="M340.673,248.594l-2.893,4.216a2.14,2.14,0,0,0,.354,3l9.048,6.167a2.16,2.16,0,0,0,2.936-.76L353.011,257a2.16,2.16,0,0,1-2.936.76l-9.048-6.164A2.146,2.146,0,0,1,340.673,248.594Z" transform="translate(-307.171 -215.131)"/></g><path class="ab" d="M335.458,262.8a9.453,9.453,0,0,1,1.651-7.062,15.178,15.178,0,0,1,1.684-1.815,2.326,2.326,0,0,1,1.014-.67,3.2,3.2,0,0,1,2.2.5,4,4,0,0,1,1.8,1.789c.5,1.23-.352,2.257-1.321,2.87a.5.5,0,0,0-.242.24c-.055.164.059.373.166.558a4.08,4.08,0,0,1,.7,2.344,1.374,1.374,0,0,1-1.613,1.207c-.354-.057-.827-.195-.943.076a.577.577,0,0,0-.007.306,2.51,2.51,0,0,1-.546,1.979.693.693,0,0,1-.435.273,1.15,1.15,0,0,1-.456-.062,6.2,6.2,0,0,1-1.606-.713" transform="translate(-293.274 -195.844)"/><path class="ab" d="M344.288,264.361a35.976,35.976,0,0,1-.561-3.687,8.384,8.384,0,0,0-3.965-6.893,1,1,0,0,0-.644-.185.71.71,0,0,0-.525.618,1.909,1.909,0,0,0,.126.85c.278.872,1.516,2.508,1.133,3.406a10.2,10.2,0,0,0-.979,4.273c.043,1.3.651,3.421,2.195,3.634" transform="translate(-288.827 -195.314)"/><line class="al" x2="6.045" y2="14.254" transform="translate(20.615)"/><line class="al" x2="12.39" y2="9.286" transform="translate(7.991 12.677)"/><line class="al" x2="15.409" y2="1.513" transform="translate(0 29.944)"/></g><g transform="translate(787.797 184.462)"><g transform="translate(0 6.446)"><path class="ab" d="M541.992,189.491s-5.535-3.905-5.732-5.544-4.055-8.285-5.29-9.609-7.722-3.57-9.1-3.77-9.326.477-8.338,1.561,6.129.689,7.117,1.283l.988.591s-.988,1.342-.594,2.152-1.7,2.062-.905,3.444-.321,1.29.387,2.734c1.169,2.383,4.159,3.71,4.95,3.06.594,1.411,2.862,4.29,4.989,4.093s7.292,4.644,7.292,4.644" transform="translate(-513.442 -137.427)"/><path class="ab" d="M572.988,166.819c.188,3.718-.076,10.19.988,11.15s4.5.81,4.5.81-12.281,15.528-13.378,14.675-15.623-12.689-12.359-13.3,6.459-.48,6.366-2.169-.185-3.38-.278-5.069" transform="translate(-460.05 -142.538)"/><path class="g" d="M592.237,243.067s-23.961,2.72-29.477,2.834-5.242-2.767-5.242-2.767c-.28-6.072-1.309-20.379-2.452-25.227-1.064-4.528-1.537-6.2-2.463-10.5-2.062-9.561-1.972-11.388-4.155-23.189l14.312-11.5s1.482,4.4,7.48,4.478c8.019.1,10.514-5.513,10.514-5.513l19.521,12.96,1.831,31.526-2.335,25.963" transform="translate(-465.294 -135.857)"/><path class="ab" d="M575.544,177.51a41.657,41.657,0,0,1-1.689,5.509c-1.266,3.29-3.131,4.471-6.611,4.554l-7.338.173c-1.877.045-4.214.109-5.729-1.209s-1.537-3.5-1.87-5.314q-.638-3.47-1.04-6.981a102.652,102.652,0,0,1-.646-13.8,9.843,9.843,0,0,1,.164-1.888,1.369,1.369,0,0,1,.314-.694,1.54,1.54,0,0,1,.881-.34,75.3,75.3,0,0,1,13.87-.888c3.276.093,6.746.475,9.338,2.48,2.61,2.017,3.848,5.295,4.965,8.4.178.5.311,1.164-.121,1.468" transform="translate(-462.335 -156.597)"/><g transform="translate(36.618 105.052)"><g transform="translate(10.642 84.294)"><path class="am" d="M538.476,239.643a52.264,52.264,0,0,0,1.43,6.395c.634,1.627,5.979.126,6.333-.926s-1.682-8.8-1.682-8.8" transform="translate(-526.271 -236.308)"/><path class="an" d="M555.166,241.684c.463,1.755,1.048,5.129,1.048,5.129l-5.345,2.326-.877-.822a9.885,9.885,0,0,1-2.964,2.364,22.2,22.2,0,0,1-5.171,1.435c-4.665.5-8.1-.375-8.376-1.021-1.157-2.7,5.034-3.428,6.262-3.751a8.2,8.2,0,0,0,5.863-5.874c.273-1.416-.078-1.665.713-1.622a1.884,1.884,0,0,1,1.337.629,3.375,3.375,0,0,0,3.8.881,4.036,4.036,0,0,0,1.893-1.577A2.332,2.332,0,0,1,555.166,241.684Z" transform="translate(-533.338 -231.534)"/></g><path class="ae" d="M575.322,225.942a90.549,90.549,0,0,1-27.279.646c1.181,3.385,4.074,7.72,5.176,12.485,3.639,15.732,4.9,36.869,5.827,49.943,0,0-1.746,3.356-7.347.8-8.366-20.664-22.975-62.542-22.84-71.628.173-11.566,29.042-14.359,50.2-17.21" transform="translate(-528.858 -200.606)"/><path class="an" d="M610.364,203c6.654,4.858-36.878,23.158-36.878,23.158a72.489,72.489,0,0,1-14.267,1.361,10.4,10.4,0,0,1-1.062-2.7c-.257-1.264-.119-2.58-.34-3.848a8.949,8.949,0,0,0-4.349-5.862,19.574,19.574,0,0,0-7.115-2.3c-5.886-.95-16.162-.285-16.162-.285,13.084-9.644,39.852-10.905,52.321-11.7C584.9,204.756,609.41,202.3,610.364,203Z" transform="translate(-527.022 -200.822)"/><g transform="translate(21.904 96.397)"><path class="am" d="M544.286,243.631a52.292,52.292,0,0,0,.3,6.547c.342,1.715,5.867,1.162,6.4.185s-.131-8.96-.131-8.96" transform="translate(-529.543 -241.403)"/><path class="an" d="M561.116,247.831c.152,1.812.142,5.233.142,5.233l-5.665,1.366-.722-.964a9.873,9.873,0,0,1-3.328,1.815,22.208,22.208,0,0,1-5.345.515c-4.68-.314-7.908-1.772-8.069-2.456-.672-2.862,5.549-2.5,6.815-2.608a8.2,8.2,0,0,0,6.791-4.77c.515-1.347.214-1.653.986-1.473a1.883,1.883,0,0,1,1.207.85,3.371,3.371,0,0,0,3.587,1.525,4.036,4.036,0,0,0,2.138-1.223A2.33,2.33,0,0,1,561.116,247.831Z" transform="translate(-538.079 -237.223)"/></g><path class="ae" d="M608.224,201.334a269.614,269.614,0,0,1-29.491.941c-3.767,0-32.256,5.345-34.98,10.172-4.482,7.941,2.924,54.349,2.238,87.574,0,0,3.416,2.85,9.456.171,1.5-16.321,11.146-54.824,4.492-72.8,15.706,2.083,28.377,4.155,42.653-.577,3.342-1.107,5.841-3.468,7.345-7.787C611.443,214.691,610.657,205.211,608.224,201.334Z" transform="translate(-510.364 -200.118)"/></g><g transform="translate(18.323 36.854)"><path class="g" d="M600.3,172.112s-3.423.188-4.09.242a31.453,31.453,0,0,0-8.461,1.6c-3.881,1.437-6.62,5.048-9.78,7.872-3.043,2.717-18.811,17.742-21.752,18.3s-28.759-17.139-28.759-17.139l-6.3,6.3s28.013,25.885,36.368,25.93c4.055.021,26.417-11.751,33.574-16.326Z" transform="translate(-521.156 -172.112)"/><path class="ao" d="M557.588,201.01c-5.758.325-32.149-19.83-35.208-22.182l-1.223,1.223s28.013,25.885,36.368,25.93c3.38.017,19.464-8.152,28.873-13.526l2.437-1.413-1.461-8.7S563.7,200.665,557.588,201.01Z" transform="translate(-521.156 -162.875)"/></g><g transform="translate(14.663 70.481)"><path class="ap" d="M531.8,227.234h64.127l-11.5-37.484a4.928,4.928,0,0,0-4.71-3.482h-56.16A3.194,3.194,0,0,0,520.5,190.4Z" transform="translate(-518.589 -186.268)"/><path class="aq" d="M532.022,227.234h63.16l-11.5-37.484a4.928,4.928,0,0,0-4.713-3.482H522.815a3.2,3.2,0,0,0-3.057,4.133l11.015,35.912A1.3,1.3,0,0,0,532.022,227.234Z" transform="translate(-519.615 -186.268)"/></g><path class="ao" d="M590.075,190.779c-3.19,14.431-3.756,25.723-4.658,36.042-11.2,4.349-15.768,10.825-26.733,15.7,0,0-8.658-1.437-9.566,1.829-.525,1.884,10.136,3.383,10.136,3.383,10.162.048,36.961-7.378,38.774-7.877s7.1-34.565,7.307-53.052c.028-2.625-.064-5.475-1.706-7.523a9.858,9.858,0,0,0-3.307-2.447c-7.15-3.656-12.447-4.653-20.462-5.162" transform="translate(-464.399 -135.857)"/><path class="ab" d="M564.168,203.424c-1.2-1.516-3.4-1.736-5.335-1.689a39.157,39.157,0,0,0-4.285.342c-.646.088-1.392.24-1.458.941s3.14,0,4.822.485a84.741,84.741,0,0,1-9.915.271,2.843,2.843,0,0,0-1.143.116.949.949,0,0,0-.641.869,1.185,1.185,0,0,0,.454.755,6.73,6.73,0,0,0,3.411,1.373,26.269,26.269,0,0,0,15.072-1.33" transform="translate(-468.371 -94.521)"/><path class="g" d="M583.829,190.508c-.264,15.426-1.359,22.486-1.06,37.912-7.744,1.656-18.464,10.423-29.429,15.3a5.79,5.79,0,0,0,.364,4.012c.836.306,36.985-8.494,39.859-11.143,2.587-2.385,6.01-31.3,6.221-49.786.028-2.625-.064-5.475-1.706-7.523a9.858,9.858,0,0,0-3.307-2.447c-7.15-3.656-12.447-4.653-20.462-5.162" transform="translate(-458.849 -135.857)"/><g transform="translate(41.471 85.657)"><path class="ar" d="M549.1,198.61c.228,3.288-3.656,5.95-8.677,5.95s-9.278-2.663-9.509-5.95,3.656-5.953,8.677-5.953S548.866,195.322,549.1,198.61Z" transform="translate(-530.901 -192.657)"/><ellipse class="as" cx="3.308" cy="5.782" rx="3.308" ry="5.782" transform="matrix(0.039, -0.999, 0.999, 0.039, 3.196, 9.032)"/></g></g><path class="at" d="M566.149,161.594c-.121-.577-1.4-.691-2.689-.53s-4.715.594-5.418,1.143-.665.943-1.04.986-.394-.344-1.214-.7-2.8-.107-4.086.055-2.508.447-2.482,1.036a3.3,3.3,0,0,0,.516,1.777c.261.164.261.135,1.273,2.461a2.456,2.456,0,0,0,3.1,1.682c2.117-.461,2.25-2.872,2.413-3.879s.316-1.157.637-1.2.542.062.95,1,.7,3.093,2.872,3.214c2.839.159,4.069-.812,4.463-2.632.532-2.468.411-2.478.625-2.7a13.448,13.448,0,0,1,2.121.181l-.047-.736A16.039,16.039,0,0,1,566.149,161.594Zm-10.309,4.967a2.471,2.471,0,0,1-2.093,2.589c-1.3.164-1.9-.527-2.6-2.195a4.313,4.313,0,0,1-.42-3.007c.221-.4.924-.385,2.539-.487s2.157-.138,2.418.575A8.762,8.762,0,0,1,555.839,166.561Zm9.255-1.361c-.268,1.789-.924,2.649-2.708,2.862-2.527.3-3.015-.694-3.387-1.9a8.779,8.779,0,0,1-.473-2.487c.078-.753.608-.855,2.2-1.154s3.718-.672,4.031-.34A4.3,4.3,0,0,1,565.094,165.2Z" transform="translate(-464.235 -144.099)"/><path class="au" d="M584.312,167.439a27.368,27.368,0,0,0-.706-3.8,12.119,12.119,0,0,0-5.924-7.765,18.944,18.944,0,0,0-13.4-1.335c-2.454.686-3.364,1.979-4.627,1.943a13.9,13.9,0,0,1-3.432-1.131c-9.589-3.447-7.981,5.941-6.96,8.518.454,1.14,2.627,1.972,2.917,2.444s.256,2.8.442,3.82a2.025,2.025,0,0,0,1.195,1.411s.052-3.022.1-3.43a3.806,3.806,0,0,1,1.418-2.832,8.8,8.8,0,0,1,3.449-.969,26.27,26.27,0,0,1,7.057,1.169c1.791,1.537,2.252,5.043,2.755,7.1.233.962.478,1.608.869,1.594.3-2.839,1.283-2.91,2.981-1.941.905.518,1.413,2.316,1.444,3.839.036,1.8-.972,3.789-2.862,4.19-.677.145,1.366,4.017,2.311,4.984a5.168,5.168,0,0,0,1,.879,4.585,4.585,0,0,0,1.155.428l1.37.373a3.588,3.588,0,0,0,1.884.162c1.012-.285,1.546-1.359,2-2.307.748-1.553,1.611-3.06,2.224-4.675A27.764,27.764,0,0,0,584.312,167.439Z" transform="translate(-465.257 -153.884)"/></g><g transform="translate(958.27 268.954)"><path class="v" d="M706.587,260.637H585.208l14.535-10.753v-52.5a7.932,7.932,0,0,1,7.932-7.932h98.912a7.932,7.932,0,0,1,7.931,7.932v55.321A7.932,7.932,0,0,1,706.587,260.637Z" transform="translate(-585.208 -189.453)"/><g transform="translate(24.091 10.239)"><rect class="av" width="55.471" height="5.308" transform="translate(39.202)"/><rect class="av" width="55.471" height="5.308" transform="translate(39.202 7.929)"/><rect class="av" width="55.471" height="5.308" transform="translate(39.202 15.858)"/><rect class="av" width="55.471" height="5.308" transform="translate(39.202 23.585)"/><rect class="av" width="38.684" height="5.308" transform="translate(39.202 32.827)"/><rect class="d" width="34.845" height="40.743" rx="3.385" transform="translate(-0.389 -0.542)"/><rect class="av" width="34.845" height="4.374" transform="translate(0 45.817)"/><path class="aw" d="M27.035,20.162a12.455,12.455,0,0,0,.933-4.748A12.608,12.608,0,0,0,16.809,2.937V1L14.256,2.915A12.5,12.5,0,0,0,2.963,16.974a5.1,5.1,0,0,0,.827,8.57V27.5A1.4,1.4,0,0,0,5.185,28.9h1.86A1.4,1.4,0,0,0,8.44,27.5v-1.66a12.444,12.444,0,0,0,6.975,2.125h5.357a5.112,5.112,0,1,0,6.264-7.807ZM16.309,3.824a11.669,11.669,0,0,1,10.729,11.59,11.535,11.535,0,0,1-.865,4.4,5.1,5.1,0,0,0-1.46-.215c-.166,0-.331.009-.493.025A9.757,9.757,0,0,0,16.39,5.7l-.511-.051V6.58L13.4,4.72l2.48-1.86v.931Zm3.313,20.425H15.414a8.785,8.785,0,0,1-4.58-1.285,5.09,5.09,0,0,0,.4-1.97c0-.157-.01-.312-.024-.465h9.323v-9.3h-2.79V19.6h-.93v-6.51h-2.79V19.6h-.93v-4.65H10.3v3.113A5.113,5.113,0,0,0,6.6,15.9c-.009-.164-.024-.327-.024-.49a8.786,8.786,0,0,1,7.833-8.772l2.4,1.8V6.689a8.833,8.833,0,0,1,6.219,13.2A5.121,5.121,0,0,0,19.623,24.249ZM11.23,19.6v-3.72h.93V19.6Zm4.65,0h-.93v-5.58h.93Zm2.79,0v-7.44h.93V19.6ZM3.79,15.414A11.7,11.7,0,0,1,12.638,4.128l-.789.591,1.53,1.148a9.708,9.708,0,0,0-7.73,9.546c0,.162.016.325.024.487a5.058,5.058,0,0,0-1.836.519C3.809,16.086,3.79,15.75,3.79,15.414Zm-1.86,5.58a4.185,4.185,0,1,1,5.58,3.941v-3.1a1.379,1.379,0,0,0,.465.086,1.395,1.395,0,1,0-1.309-1.86h-1.1a1.4,1.4,0,1,0-.844,1.774v3.1a4.189,4.189,0,0,1-2.79-3.941Zm3.72,0h.93v4.157a3.955,3.955,0,0,1-.93,0Zm1.86-.465a.465.465,0,1,1,.465.465A.466.466,0,0,1,7.51,20.529Zm-2.79,0a.465.465,0,1,1-.465-.465A.466.466,0,0,1,4.72,20.529Zm2.325,7.44H5.185A.466.466,0,0,1,4.72,27.5V25.911a5.011,5.011,0,0,0,2.79,0V27.5A.466.466,0,0,1,7.045,27.969Zm8.37-.93a11.521,11.521,0,0,1-6.335-1.885A5.159,5.159,0,0,0,10.4,23.785a9.714,9.714,0,0,0,5.019,1.394h4.209a5.068,5.068,0,0,0,.541,1.86Zm7.006,1.171.141-1.132a2.169,2.169,0,0,1,4.3,0l.141,1.132a4.163,4.163,0,0,1-4.587,0Zm1.363-4.891a.93.93,0,1,1,.93.93A.931.931,0,0,1,23.784,23.319Zm4.068,4.154-.064-.51a3.1,3.1,0,0,0-1.706-2.395,1.86,1.86,0,1,0-2.736,0,3.1,3.1,0,0,0-1.706,2.395l-.064.51a4.185,4.185,0,1,1,6.277,0Z" transform="translate(1.611 3.458)"/></g></g><g transform="translate(618.633 158.407)"><path class="v" d="M452.333,251.329H606.979l-18.521-13.7v-84.61a10.1,10.1,0,0,0-10.105-10.1H452.333a10.1,10.1,0,0,0-10.105,10.1v88.206A10.1,10.1,0,0,0,452.333,251.329Z" transform="translate(-442.228 -142.915)"/><g transform="translate(13.436 15.688)"><g class="ax" transform="translate(0 0)"><rect class="c" width="70.674" height="6.763" transform="translate(70.674 6.763) rotate(180)"/><rect class="c" width="70.674" height="6.763" transform="translate(70.674 16.865) rotate(180)"/><rect class="c" width="70.674" height="6.763" transform="translate(70.674 26.967) rotate(180)"/><rect class="c" width="70.674" height="6.763" transform="translate(70.674 36.811) rotate(180)"/><rect class="c" width="70.674" height="6.763" transform="translate(70.674 46.654) rotate(180)"/><rect class="c" width="70.674" height="6.762" transform="translate(70.674 64.541) rotate(180)"/><rect class="c" width="120.621" height="6.763" transform="translate(120.621 75.193) rotate(180)"/></g><g transform="translate(76.226)"><rect class="d" width="44.395" height="51.91" rx="4.313" transform="translate(44.072 51.466) rotate(180)"/><rect class="av" width="44.395" height="5.573" transform="translate(44.395 63.946) rotate(180)"/><g transform="translate(1.63 5.557)"><path class="c" d="M55.813,13.085,57.1,14.368v2.486l1.192,1.192V13.874l-2.525-2.525a3.579,3.579,0,0,1,.141.984A3.452,3.452,0,0,1,55.813,13.085Z" transform="translate(-21.354 -3.373)"/><path class="c" d="M59.576,36.149a1.786,1.786,0,0,0-1.192-1.679v-5.48a2.962,2.962,0,0,1-1.192.531v4.948a1.785,1.785,0,1,0,2.384,1.679Z" transform="translate(-21.449 -10.534)"/><path class="c" d="M12.785,3c-.641,0-1.323.91-1.794,2.384h3.587C14.108,3.91,13.425,3,12.785,3Z" transform="translate(-3.209 0)"/><path class="c" d="M14.764,11.384A14.848,14.848,0,0,0,14.49,9H10.3a14.781,14.781,0,0,0-.274,2.384Z" transform="translate(-2.817 -2.424)"/><path class="c" d="M20.545,5.651a6.553,6.553,0,0,0-2.83-1.99,8.251,8.251,0,0,1,.829,1.99Z" transform="translate(-5.941 -0.267)"/><path class="c" d="M8.361,3.659A6.579,6.579,0,0,0,5.521,5.65H7.532A8.261,8.261,0,0,1,8.361,3.659Z" transform="translate(-0.999 -0.266)"/><path class="c" d="M6.257,9H3.744a6.508,6.508,0,0,0-.694,2.384H6.013A16.344,16.344,0,0,1,6.257,9Z" transform="translate(-0.001 -2.424)"/><path class="c" d="M49.9,16.355,36.566,3.025a1.792,1.792,0,0,0-1.541,1.541L48.355,17.9A1.792,1.792,0,0,0,49.9,16.355Z" transform="translate(-12.976 -0.01)"/><path class="c" d="M31.98,25.98c.04,0,.077.01.116.012a1.772,1.772,0,0,0,.465-1.066,13,13,0,0,1-1.249-1.838A1.765,1.765,0,0,0,30.788,23,1.79,1.79,0,0,0,29,24.788v7.153a1.788,1.788,0,0,0,3.576,0,1.766,1.766,0,0,0-.122-.629l-.193-.51.491-.237a1.784,1.784,0,1,0-2.114-2.787l-.894-.789A2.983,2.983,0,0,1,31.98,25.98Z" transform="translate(-10.514 -8.108)"/><path class="c" d="M19.813,11.384h2.961A6.609,6.609,0,0,0,22.073,9h-2.5A16.349,16.349,0,0,1,19.813,11.384Z" transform="translate(-6.693 -2.424)"/><path class="c" d="M51.335,11.384A2.387,2.387,0,0,0,48.951,9a2.339,2.339,0,0,0-1.549.589l3.344,3.344A2.339,2.339,0,0,0,51.335,11.384Z" transform="translate(-17.976 -2.424)"/><path class="c" d="M20.788,30.749c-.04,0-.077-.01-.116-.012a1.784,1.784,0,1,0,3.1,1.2V24.788a1.788,1.788,0,1,0-3.576,0,1.766,1.766,0,0,0,.122.629l.193.51-.491.237a1.784,1.784,0,1,0,2.114,2.787l.894.789A2.983,2.983,0,0,1,20.788,30.749Z" transform="translate(-6.463 -8.108)"/><path class="c" d="M33.522,27.98a3.071,3.071,0,0,1-.18.356,2.959,2.959,0,0,1,.37,5.053,2.826,2.826,0,0,1,.057.563A2.973,2.973,0,0,1,29,36.33v1.2a.6.6,0,0,0,.6.6h1.192a1.788,1.788,0,0,1,0,3.576h-.6a.6.6,0,0,0-.6.6v5.365h4.172v-6.17l2.548-3.185a10.171,10.171,0,0,0,2.22-6.33V30.721a10.9,10.9,0,0,1-5.015-2.741Z" transform="translate(-10.519 -10.148)"/><path class="c" d="M23.517,35.266a.6.6,0,0,0,0-1.192H22.325a1.79,1.79,0,0,1-1.788-1.788v-1.2A2.977,2.977,0,0,1,16.2,27.173a2.959,2.959,0,0,1-.37-5.053,2.826,2.826,0,0,1-.057-.563,2.979,2.979,0,0,1,5.365-1.786,2.979,2.979,0,0,1,2.27-1.187,14.721,14.721,0,0,1-1.072-3.5v-.007a10.292,10.292,0,0,0-1.2-.077A10.144,10.144,0,0,0,11,25.133v5.531l1.751.584.336,3.693a2.965,2.965,0,0,0,2.968,2.71h2.695v4.768h2.384V37.054a1.79,1.79,0,0,1,1.788-1.788Z" transform="translate(-3.213 -4.905)"/><path class="c" d="M6.017,15H3.047a6.551,6.551,0,0,0,.688,2.384H6.263A16.348,16.348,0,0,1,6.017,15Z" transform="translate(0 -4.86)"/><path class="c" d="M32.078,13.348a13.485,13.485,0,0,0,3.355,6.53,9.719,9.719,0,0,0,5.9,2.793L44.3,19.7l-9.29-9.29Z" transform="translate(-11.771 -2.995)"/><path class="c" d="M11.913,21h-.922a7.571,7.571,0,0,0,.348.89Q11.606,21.431,11.913,21Z" transform="translate(-3.209 -7.289)"/><path class="c" d="M5.511,21a6.516,6.516,0,0,0,2.85,2,8.441,8.441,0,0,1-.82-2Z" transform="translate(-0.995 -7.29)"/><path class="c" d="M14.729,15.553c.013-.182.018-.368.024-.553H10.028a15,15,0,0,0,.275,2.384h2.2A11.394,11.394,0,0,1,14.729,15.553Z" transform="translate(-2.82 -4.86)"/><path class="c" d="M57,45.192v3.576h2.384V45.192a1.192,1.192,0,0,0-2.384,0Z" transform="translate(-21.853 -16.609)"/></g></g></g></g><g transform="translate(897.898 368.641)"><ellipse class="ay" cx="68.15" cy="7.184" rx="68.15" ry="7.184" transform="translate(20.363 329.182)"/><path class="az" d="M590.806,369.865c-.573,1.114-3.314,3.689-7.112,5.385s-11.841,2.492-7.371,3.986,9.68.589,12.321.166a53.234,53.234,0,0,1,8.312-.5c4.107-.026,4.14-.28,3.587-4.91C599.78,367.616,592.654,366.264,590.806,369.865Z" transform="translate(-538.867 -43.695)"/><path class="az" d="M618.231,369.571c-.228,1.285,1.6,5.181-1.67,8.041s-10.677,5.87-5.763,5.981a28.612,28.612,0,0,0,12.131-2.259c2.5-1.235.5-3.178,3.6-4.155,4.083-1.29,3.24-4.292,1.119-6.15C624.932,364.911,618.967,365.412,618.231,369.571Z" transform="translate(-491.89 -45.713)"/><path class="ae" d="M640.985,343.531s9.787-28.773-17.979-52.475c0,0-14.88,5.924-26.795,6.639-9.385.563-14.148-.3-14.148-.3s-.791,25.562-.824,39.339Z" transform="translate(-530.296 -149.394)"/><path class="ae" d="M580.3,338.6c-.537-12.865,13.412-11.179,18.557-1.568,10.637,19.873-3.924,65.642-5.848,87.33-2,.774-5.352,1.378-7.364.458a5.143,5.143,0,0,1-2.14-2.366C583.814,395.85,580.876,352.356,580.3,338.6Z" transform="translate(-531.607 -96.672)"/><path class="ae" d="M598.353,380.88c-1.606,5.254-19.412,10.78-17.968-8.342.639-8.48,2.344-55.309,2.672-59.822s1.086-11.112,3.266-11.937c10.91-4.117,30.208,10.148,27.336,27.1C611.745,339.209,601.679,369.987,598.353,380.88Z" transform="translate(-531.585 -137.004)"/><path class="ae" d="M600.163,343.61c-4.3-12.134,9.682-14.281,17.614-6.806,18.576,17.507,19.3,58.758,23.849,80.051a16.291,16.291,0,0,1-8.122,2.326,2.9,2.9,0,0,1-2.214-1.133C623.744,392.537,604.769,356.585,600.163,343.61Z" transform="translate(-505.374 -92.432)"/><path class="ae" d="M628.345,381.7c.487,5.471-14.357,16.777-20.2-1.485-2.592-8.1-13.685-55.965-15.074-60.271s-1.01-13.2.7-14.782c8.566-7.915,27.9-.955,31.6,15.832C627.86,332.214,627.338,370.353,628.345,381.7Z" transform="translate(-515.185 -134.48)"/><path class="ba" d="M575.25,261.367c.506-.534,1.012-1.069,1.463-1.648,3.518-4.5,4.031-8.487,7.29-13.709a40.756,40.756,0,0,1,2.368-4.532,18.958,18.958,0,0,1,5.29-4.335c1.523-.8.214,2.558.214,2.558s1.292-1.874,2.542-1.741c.487.052.573,2.915.58,3.4a24.034,24.034,0,0,1-2.67,11.364,5.853,5.853,0,0,0-.91,2.582,5.772,5.772,0,0,0,3.069-1.511,3.707,3.707,0,0,1,3.212-.936,8.794,8.794,0,0,1-.618,1.342c-1.39,2.608-2.95,5.385-5.62,6.654-1.6.755-3.442.891-5,1.72-2.815,1.5-4.183,4.96-7.041,6.373" transform="translate(-538.533 -223.715)"/><rect class="bb" width="12.16" height="22.387" rx="0.646" transform="matrix(0.923, 0.386, -0.386, 0.923, 52.263, 13.908)"/><rect class="bc" width="10.194" height="19.984" transform="translate(53.01 15.523) rotate(22.698)"/><path class="t" d="M622.207,266.469a66.475,66.475,0,0,0-13.587,2.295c-9.668,2.9-12.994,7.38-16.333,9.231,6.487-8.243,13.72-25.723,13.72-25.723s-8.723-7.164-9.725-5.468-37.61,44.532-36.463,51.468c.473,2.86,4.71,5.687,8.457,5.558,10.38-.356,22.433-4.133,35.07-8.269,5.556-1.817,7.269,2.1,7.269,2.1" transform="translate(-559.793 -210.616)"/><path class="bd" d="M577.087,262.355s-4.611,9.293-6,9.9,3.361-1.936,5.958-4.618,6.15-9.72,6.15-9.72C581.835,258.473,577.087,262.355,577.087,262.355Z" transform="translate(-544.593 -194.976)"/><path class="ba" d="M582.907,240.829a2.1,2.1,0,0,1,.653,1.463c.316,2.057.62,4.24-.178,6.162a8.883,8.883,0,0,1-2.48,3.155,19.4,19.4,0,0,1-3.775,2.58" transform="translate(-535.95 -218.476)"/><path class="be" d="M589.971,234.32c-2.447.706-3.739,3.862-4.57,6.024a33.516,33.516,0,0,0-1.827,8.126,11.155,11.155,0,0,0,.4,5.718,12.007,12.007,0,0,0,1.6,2.487,5.259,5.259,0,0,0,1.15,1.211,1.773,1.773,0,0,0,1.591.271c.762-.292,1.069-1.188,1.285-1.974,1.409-5.133,2.95-10.326,5.848-14.792" transform="translate(-527.331 -227.429)"/><path class="ba" d="M587.855,242.243c-.05-1.634-1.77-2.7-3.259-1.007-1.235,1.4-1.563,4.06-1.632,6.024-.085,2.354,1.739,2.815,3.24,3.145" transform="translate(-527.928 -219.097)"/><path class="t" d="M578.773,263.569c3.019-3.461,12.6-9.169,25.4-8.763,8.82.278,32.843,1.734,35.527,7.635,1.373,3.017,2.846,33.907.836,44.556-1.511,8.01-5.375,27.849-5.375,32.638s2.573,6.841,1.373,8.231c-2.689,3.114-21.07,4.421-29.7,4.421-7.68,0-20.754-2.048-21.417-4.508-.983-3.651,1.5-3.516,1.836-7.345s1.3-28.683-.1-32.75c-2.544-7.345-3.779-19.322-5.8-24.754C579.816,278.807,575.757,267.03,578.773,263.569Z" transform="translate(-535.182 -199.281)"/><path class="bf" d="M620.055,269.116c.915,1.905,7.131,11.9,7.131,11.9l.252,1.2a49.443,49.443,0,0,1-.632,5.34c-1.511,8.01-5.375,27.849-5.375,32.638s2.463,6.753,1.373,8.231c-2.119,2.872-36.779,9.331-35.073,1.311.154-.724,29.089-22.8,29.244-23.543,1.333-6.335,2.5-10.9,3.081-15.521C621.461,279.552,619.14,267.211,620.055,269.116Z" transform="translate(-521.451 -179.839)"/><path class="bg" d="M587.566,253.8s-.081,10.048-.485,10.454a15.837,15.837,0,0,1-2.392,1.344s1.416,8.732,3.6,8.084,16.64-7.946,16.64-7.946-2.05-.834-2.05-1.644,1.945-16.614,1.945-16.614" transform="translate(-525.55 -209.327)"/><path class="bg" d="M599.794,234.777c-2.107.575-7.656-.575-9.188,1.722s-2.872,7.848-3.447,9.381c-1.143,3.048-1.889,6.307-2.718,9.449-1.083,4.1-2.867,11.6,1.14,15.022a5.333,5.333,0,0,0,3.09,1.57c1.9.342,3.784.732,5.682,1.071,2.941.527,6.2,1.143,9.117.195,3.9-1.266,6.038-6.63,7.043-10.271l5.741-20.866Z" transform="translate(-527.742 -226.8)"/><path class="bh" d="M587.164,260.162s-.846,39.209-2.442,63.06l5.768,7.951,3.962-9.958a303.2,303.2,0,0,0-3.748-60.78Z" transform="translate(-525.505 -191.886)"/><path class="bh" d="M585.191,260.142l.135.539a10.969,10.969,0,0,0,1.193,2.905h0l3.539.273s2.4-1.261,2.722-2.615-3.948-3.573-3.948-3.573l-.518.2a7.721,7.721,0,0,0-3.081,2.216Z" transform="translate(-524.86 -195.31)"/><path class="c" d="M600.33,253.446a14.774,14.774,0,0,1,4.036,4.091c-1.82,4.162-5.931,11.556-10.461,14.925a20.45,20.45,0,0,0-7.181-8.977S599.064,261.287,600.33,253.446Z" transform="translate(-522.752 -201.123)"/><path class="c" d="M590.913,263.178a15.19,15.19,0,0,0-7.036,6.687,33.634,33.634,0,0,1,.955-12.411s2.9-3.708,3.9-3.784C588.319,258.391,590.913,263.178,590.913,263.178Z" transform="translate(-526.941 -200.816)"/><g transform="translate(11.655 59.511)"><path class="ba" d="M592.081,294.522c-4.383.66-6,2.29-8.473,4.729a.913.913,0,0,0-.368.729c.057.349.468.5.817.561,2.036.328,2.366-.974,4.269-1.767,1.285-.537,2.561-1.093,3.839-1.649" transform="translate(-539.208 -204.138)"/><g transform="translate(0 50.023)"><g transform="translate(0 6.334)"><path class="c" d="M602.693,282.29l15.531,49.774a1.781,1.781,0,0,1-1.646,2.5L584.172,337.4a3,3,0,0,1-2.715-2.093l-16.7-49.017c-.418-1.335,1.511-3.245,2.813-3.254l32.405-2.843A3,3,0,0,1,602.693,282.29Z" transform="translate(-564.699 -280.197)"/></g><g transform="translate(0.048 7.633)"><path class="bi" d="M601.6,282.837l15.314,49.007a1.783,1.783,0,0,1-1.646,2.5l-32.406,2.843a3.006,3.006,0,0,1-2.715-2.1l-15.314-49a1.782,1.782,0,0,1,1.646-2.5l32.4-2.843A3.007,3.007,0,0,1,601.6,282.837Z" transform="translate(-564.719 -280.744)"/></g><g transform="translate(11.043)"><path class="bj" d="M569.348,281.721l1.15,4.3,15.156-1.339-1.246-4.279Z" transform="translate(-569.348 -273.585)"/><path class="bj" d="M570.666,281.674c.313,1,1.518,4.86,1.518,4.86l7.236-.67L577.9,281a4.92,4.92,0,0,0-4.8-3.459C571.1,277.731,570.012,279.579,570.666,281.674Zm1.6-.1a1.662,1.662,0,0,1,1.366-2.316,2.765,2.765,0,0,1,2.694,1.941,1.661,1.661,0,0,1-1.366,2.316A2.759,2.759,0,0,1,572.269,281.574Z" transform="translate(-567.797 -277.531)"/></g></g><path class="bg" d="M605.057,293.059c-3.4.708-12.459,3.411-13.412,3.86a40.132,40.132,0,0,0-5.777,4.271c-3.409,3.421-1.665,5.014-3.01,9.654a2.71,2.71,0,0,0-.083.734c0,.482.653.9,1.311.449.356.6,1.409.228,1.919-.423-.009.463.639.755,1.682.178.563-.311.463-.283,1.765-1.444a13.691,13.691,0,0,1,3.687-2.245,26.791,26.791,0,0,0,3.6-1.644c1.375-.905,3.829-1.121,5.041-5.05a3.915,3.915,0,0,1,1.891-1.888l5.539-3.473" transform="translate(-539.837 -206.15)"/><path class="t" d="M616.2,279.62c1.442,5.14,7.437,40.76,7.437,40.76l-33.776,24.462,2.81,7.388s40.413-13.568,43.6-22.844,3.036-51.173-8.188-65.872c-3.573-4.68-10.732-7.041-10.732-7.041" transform="translate(-530.091 -256.472)"/><path class="bk" d="M589.308,298.458a21.716,21.716,0,0,0-2.359,1.815c-.964,1.017-1.689,2.143-2.722,3.359" transform="translate(-537.841 -198.724)"/><path class="bk" d="M588.478,297.516a12.207,12.207,0,0,0-2.784,3.376,45.583,45.583,0,0,1-2.216,4.278" transform="translate(-538.871 -200.02)"/><path class="bk" d="M586.955,296.754c-.328.525-1.718,1.831-2,2.38a21.514,21.514,0,0,0-1.924,5.5" transform="translate(-539.483 -201.068)"/></g><path class="au" d="M611.6,263.917c-1.323-.774-2.337-1.592-3.2-.323-.456.672-.734,1.6-1.513,1.831a1.563,1.563,0,0,1-1.772-1.254,4.539,4.539,0,0,1,.292-2.383q.8-2.565,1.594-5.133c.52-1.675,1.038-3.516.373-5.14a5.654,5.654,0,0,0-1.62-2.076,17.161,17.161,0,0,0-7.882-3.371,83.755,83.755,0,0,1-8.483-1.744,9.187,9.187,0,0,1-3.23-1.625,6.972,6.972,0,0,1-2.29-5.224,10.778,10.778,0,0,1,1.658-5.566,9.251,9.251,0,0,0,.846,1.931,7.175,7.175,0,0,1,1.546-2.423c.824,4.6,20.177,3.06,24.7,5.088,3.136,1.4,5.727,2.323,5.632,7.4a1.861,1.861,0,0,0,.613.808c2.777,2.551,3.981,5.656,4.328,10.262.428,5.639-2.855,11.742-6.074,16.39a10.455,10.455,0,0,1-2.39,2.858,6.34,6.34,0,0,1-4.5,1.017c-1.394-.266-4.145-.147-4.171-1.568-.019-1.017,2.155-2.829,2.755-3.649" transform="translate(-526.677 -231.419)"/><path class="bg" d="M593.436,251.435a1.774,1.774,0,0,0,2.653,2.012,6.117,6.117,0,0,0,3.862-4.737c.456-2.44-.855-4.877-3.086-4.242a3.292,3.292,0,0,0-2.107,3.209" transform="translate(-513.579 -213.611)"/><path class="ba" d="M585.951,250.5l6.209,1.143a8.658,8.658,0,0,1-6.29,2.321" transform="translate(-523.926 -205.169)"/></g><g class="bl" transform="translate(446.727 277.902)"><path class="bm" d="M-7585.434,1513.149a18.24,18.24,0,0,1-9.743,2.78c-9.709,0-17.579-7.428-17.579-16.591s7.87-16.589,17.579-16.589,17.577,7.428,17.577,16.589a15.952,15.952,0,0,1-3.84,10.35l2.8,6.883Z" transform="translate(7612.755 -1482.749)"/><path class="bn" d="M375.447,198.63v11.858a1.242,1.242,0,0,0,1.865,1.076l10.269-5.929a1.242,1.242,0,0,0,0-2.152l-10.269-5.929A1.243,1.243,0,0,0,375.447,198.63Z" transform="translate(-362.173 -187.49)"/></g><g class="bo" transform="translate(1038.499 404.044)"><g transform="translate(1.034 23.616)"><path class="v" d="M627.735,262.282l-8.317,4.186,4.158-10.2" transform="translate(-619.418 -256.265)"/></g><path class="v" d="M654.139,262.911c0,9.162-7.87,16.59-17.578,16.59s-17.578-7.428-17.578-16.59,7.87-16.588,17.578-16.588S654.139,253.749,654.139,262.911Z" transform="translate(-618.983 -246.323)"/><g transform="translate(7.257 5.448)"><g transform="translate(7.038)"><path class="bn" d="M625.141,267.7c3.831.062,7.711.112,11.233-.119,1.114-.074,2.078-1.746.724-2.273a2.466,2.466,0,0,0,1.4-1.145,1.112,1.112,0,0,0-.679-1.494c1.33.311,1.853-1.679.817-2.321a2.916,2.916,0,0,0,1.121-1.7,1.663,1.663,0,0,0-.81-1.753,3.059,3.059,0,0,0-1.38-.226q-2.391-.014-4.779-.033c.432-2.352.56-4.917-.706-6.984-.382-.622-1.406-1.368-2.221-.888-.763.449-.551,1.565-.513,2.268a7.872,7.872,0,0,1-4.345,7.25S625.182,264.521,625.141,267.7Z" transform="translate(-625.001 -248.617)"/></g><rect class="bn" width="5.79" height="9.405" transform="translate(0 9.671)"/></g></g><g class="bp" transform="translate(759.329 279.204)"><g transform="translate(20.233 3.951)"><path class="v" d="M512.222,201.986l6.068-6.555-8.315,1.629" transform="translate(-509.975 -195.431)"/></g><path class="v" d="M501.458,205.8c0,6.644,5.708,12.029,12.749,12.029s12.746-5.385,12.746-12.029-5.708-12.029-12.746-12.029S501.458,199.153,501.458,205.8Z" transform="translate(-501.458 -193.768)"/><g transform="translate(5.602 3.951)"><g transform="translate(4.61)"><path class="bn" d="M505.85,209.272c2.511.043,5.05.081,7.359-.088.732-.052,1.361-1.264.475-1.649a1.665,1.665,0,0,0,.915-.829.831.831,0,0,0-.444-1.083c.872.226,1.214-1.219.534-1.684a2.134,2.134,0,0,0,.734-1.228,1.255,1.255,0,0,0-.53-1.273,1.827,1.827,0,0,0-.905-.162l-3.131-.026a7.866,7.866,0,0,0-.461-5.064c-.252-.451-.922-.991-1.456-.644-.5.325-.361,1.135-.335,1.646a5.817,5.817,0,0,1-2.848,5.257S505.876,206.965,505.85,209.272Z" transform="translate(-505.757 -195.431)"/></g><rect class="bn" width="3.793" height="6.821" transform="translate(0 7.013)"/></g></g><g class="bp" transform="translate(807.654 171.249)"><path class="v" d="M555.307,178.852a18.764,18.764,0,1,0-4.276,3.934l7.283,3.884Z" transform="translate(-521.802 -148.321)"/><path class="c" d="M527.18,154.837a4.59,4.59,0,0,1,6.494.067l1.171,1.195,1.2-1.185a4.592,4.592,0,1,1,6.442,6.544l-4.466,4.4-.026.031a4.593,4.593,0,0,1-6.494-.069l-4.395-4.487A4.592,4.592,0,0,1,527.18,154.837Z" transform="translate(-516.303 -141.164)"/></g></g></svg>