<svg xmlns="http://www.w3.org/2000/svg" xmlns:xlink="http://www.w3.org/1999/xlink" width="289" height="236.812" viewBox="0 0 289 236.812"><defs><style>.a{fill:#f9e4eb;}.b{fill:url(#a);}</style><linearGradient id="a" x1="0.5" x2="0.5" y2="1" gradientUnits="objectBoundingBox"><stop offset="0" stop-color="#f04c40"/><stop offset="1" stop-color="#e32c6f"/></linearGradient></defs><g transform="translate(-215 -1515)"><path class="a" d="M468.706,341.375c-1.343-16.233-17.286-28.009-23.488-44.846-4.911-13.33-4.678-27.954-1.442-41.623,4.818-20.347,20.856-38.806,23.553-59.1,2.949-22.191-16.648-28.237-35.7-25A79.778,79.778,0,0,0,403.767,181c-10.818,6.606-18.26,17-30.667,21.45-32.222,11.563-49.514-15.993-73.661-28.912-15.727-8.414-40.544-5.468-53.925,6.083-20.833,17.982,7.194,41.114-9.7,60.156-3.869,4.36-9.076,7.358-14.185,10.279-19.234,10.994-37.613,22.169-41.268,45.49-3.166,20.576,7.293,42.221,24.894,54.1,8.248,5.569,18.033,9.645,22.442,18.922,2.063,4.34,3.352,9.008,5.62,13.25,5.023,9.4,14.584,15.985,24.924,19.365,21.7,7.095,47.215,4.587,69.01-1.085,20.361-5.3,37.4-20.553,59.041-21.579,15.544-.737,29.447,6.815,45.086,3.36,13.394-2.959,27.259-11.4,33.5-23.567C468.105,352.031,469.129,346.482,468.706,341.375Z" transform="translate(35.204 1346.286)"/><g transform="translate(305 1590)"><g transform="translate(60.838 51.225)"><path class="b" d="M310.684,274.635c-3.1,0-5.621-2.182-5.621-4.865s2.521-4.865,5.621-4.865,5.62,2.182,5.62,4.865a2.555,2.555,0,1,0,5.11,0,10.165,10.165,0,0,0-8.175-9.686v-1.329a2.555,2.555,0,1,0-5.11,0v1.329a10.165,10.165,0,0,0-8.175,9.686c0,5.5,4.813,9.974,10.73,9.974,3.1,0,5.62,2.182,5.62,4.865s-2.521,4.865-5.62,4.865-5.621-2.182-5.621-4.865a2.555,2.555,0,1,0-5.11,0,10.165,10.165,0,0,0,8.175,9.686v1.1a2.555,2.555,0,1,0,5.11,0v-1.1a10.165,10.165,0,0,0,8.175-9.686C321.414,279.11,316.6,274.635,310.684,274.635Z" transform="translate(-299.954 -256.201)"/></g><g transform="translate(75.548 43.552)"><path class="b" d="M401.184,233.071a33.287,33.287,0,0,0-13.6-12.033,2.555,2.555,0,1,0-2.214,4.6,28.127,28.127,0,0,1,12.668,38.524,2.555,2.555,0,1,0,4.511,2.4,33.249,33.249,0,0,0-1.368-33.5Z" transform="translate(-383.924 -220.785)"/></g><g transform="translate(72.736 46.188)"><path class="b" d="M349.727,209h-.172a2.555,2.555,0,1,0,0,5.11h.16a2.555,2.555,0,0,0,.012-5.11Z" transform="translate(-347 -209.001)"/></g><g transform="translate(42.892 49.633)"><path class="b" d="M233.055,314.99a28.127,28.127,0,0,1-12.668-38.524,2.555,2.555,0,0,0-4.511-2.4A33.227,33.227,0,0,0,230.841,319.6a2.555,2.555,0,1,0,2.214-4.605Z" transform="translate(-212.002 -272.711)"/></g><g transform="translate(66.317 94.671)"><path class="b" d="M319.092,449h-.148a2.555,2.555,0,0,0-.023,5.11h.171a2.555,2.555,0,1,0,0-5.11Z" transform="translate(-316.378 -448.999)"/></g><g transform="translate(0 3)"><g transform="translate(0 0)"><path class="b" d="M81.922,39.407a9.706,9.706,0,0,0-.94-1.727h5.505a9.727,9.727,0,1,0,0-19.455H69.554A9.721,9.721,0,0,0,61.535,3H9.727a9.727,9.727,0,0,0,0,19.455H26.661a9.7,9.7,0,0,0,0,11H21.146A9.722,9.722,0,0,0,15.1,50.79a9.71,9.71,0,0,0,0,15.225,9.71,9.71,0,0,0,0,15.225,9.722,9.722,0,0,0,6.045,17.34H46.067A35.941,35.941,0,1,0,81.922,39.407Zm4.566-16.952a5.5,5.5,0,1,1,0,11H34.68a5.5,5.5,0,0,1,0-11ZM9.727,18.225a5.5,5.5,0,0,1,0-11H61.535a5.5,5.5,0,0,1,0,11ZM21.146,37.68H72.954a5.5,5.5,0,0,1,2.4.552c-1-.084-2.011-.129-3.033-.129A35.837,35.837,0,0,0,46.882,48.676H21.146a5.5,5.5,0,1,1,0-11Zm0,15.225H43.268a35.846,35.846,0,0,0-5.435,11H21.146a5.5,5.5,0,1,1,0-11Zm0,15.225H36.862a35.977,35.977,0,0,0-.13,11H21.146a5.5,5.5,0,1,1,0-11Zm0,26.221a5.5,5.5,0,1,1,0-11H37.595a35.807,35.807,0,0,0,5.074,11ZM72.32,105.771A31.719,31.719,0,1,1,104.04,74.051,31.755,31.755,0,0,1,72.32,105.771Z" transform="translate(0 -3)"/></g></g></g></g></svg>