<svg xmlns="http://www.w3.org/2000/svg" xmlns:xlink="http://www.w3.org/1999/xlink" width="289" height="236.812" viewBox="0 0 289 236.812"><defs><style>.a{fill:#f9e4eb;}.b{fill:url(#a);}</style><linearGradient id="a" x1="0.5" y1="1" x2="0.5" gradientUnits="objectBoundingBox"><stop offset="0" stop-color="#f04c40"/><stop offset="1" stop-color="#e32c6f"/></linearGradient></defs><g transform="translate(-1420 -1515)"><path class="a" d="M468.706,341.375c-1.343-16.233-17.286-28.009-23.488-44.846-4.911-13.33-4.678-27.954-1.442-41.623,4.818-20.347,20.856-38.806,23.553-59.1,2.949-22.191-16.648-28.237-35.7-25A79.778,79.778,0,0,0,403.767,181c-10.818,6.606-18.26,17-30.667,21.45-32.222,11.563-49.514-15.993-73.661-28.912-15.727-8.414-40.544-5.468-53.925,6.083-20.833,17.982,7.194,41.114-9.7,60.156-3.869,4.36-9.076,7.358-14.185,10.279-19.234,10.994-37.613,22.169-41.268,45.49-3.166,20.576,7.293,42.221,24.894,54.1,8.248,5.569,18.033,9.645,22.442,18.922,2.063,4.34,3.352,9.008,5.62,13.25,5.023,9.4,14.584,15.985,24.924,19.365,21.7,7.095,47.215,4.587,69.01-1.085,20.361-5.3,37.4-20.553,59.041-21.579,15.544-.737,29.447,6.815,45.086,3.36,13.394-2.959,27.259-11.4,33.5-23.567C468.105,352.031,469.129,346.482,468.706,341.375Z" transform="translate(1240.204 1346.286)"/><path class="b" d="M97.633,72.122A46.229,46.229,0,0,0,101.1,54.5,46.8,46.8,0,0,0,59.677,8.188V1L50.2,8.109A46.409,46.409,0,0,0,8.286,60.288,18.937,18.937,0,0,0,11.355,92.1v7.273a5.184,5.184,0,0,0,5.177,5.177h6.9a5.184,5.184,0,0,0,5.177-5.177V93.208A46.185,46.185,0,0,0,54.5,101.1H74.383a18.974,18.974,0,1,0,23.25-28.975ZM57.822,11.481A43.312,43.312,0,0,1,97.645,54.5a42.814,42.814,0,0,1-3.212,16.33,18.91,18.91,0,0,0-5.417-.8c-.618,0-1.229.035-1.831.093A36.215,36.215,0,0,0,58.122,18.438l-1.9-.188v3.46l-9.2-6.9,9.2-6.9v3.455Zm12.3,75.81H54.5a32.6,32.6,0,0,1-17-4.77,18.893,18.893,0,0,0,1.467-7.311c0-.583-.036-1.156-.088-1.726h34.6V38.968H63.129V70.032H59.677V45.871H49.323V70.032H45.871V52.774H35.516V64.328A18.978,18.978,0,0,0,21.8,56.317c-.033-.607-.09-1.213-.09-1.817A32.609,32.609,0,0,1,50.783,21.941l8.895,6.672v-6.5a32.783,32.783,0,0,1,23.083,49A19.006,19.006,0,0,0,70.12,87.29ZM38.968,70.032V56.226h3.452V70.032Zm17.258,0H52.774V49.323h3.452Zm10.355,0V42.419h3.452V70.032ZM11.355,54.5A43.406,43.406,0,0,1,44.2,12.611l-2.927,2.2,5.68,4.261A36.032,36.032,0,0,0,18.258,54.5c0,.6.059,1.2.09,1.809a18.773,18.773,0,0,0-6.815,1.928C11.426,56.994,11.355,55.746,11.355,54.5Zm-6.9,20.71a15.532,15.532,0,1,1,20.71,14.626V78.344a5.119,5.119,0,0,0,1.726.318,5.177,5.177,0,1,0-4.86-6.9H17.939a5.208,5.208,0,1,0-3.132,6.586V89.836A15.547,15.547,0,0,1,4.452,75.21Zm13.806,0H21.71V90.64a14.676,14.676,0,0,1-3.452,0Zm6.9-1.726a1.726,1.726,0,1,1,1.726,1.726A1.729,1.729,0,0,1,25.161,73.484Zm-10.355,0a1.726,1.726,0,1,1-1.726-1.726A1.729,1.729,0,0,1,14.806,73.484ZM23.435,101.1h-6.9a1.729,1.729,0,0,1-1.726-1.726V93.458a18.6,18.6,0,0,0,10.355,0v5.913A1.729,1.729,0,0,1,23.435,101.1ZM54.5,97.645A42.763,42.763,0,0,1,30.986,90.65a19.149,19.149,0,0,0,4.886-5.083A36.054,36.054,0,0,0,54.5,90.742H70.12a18.811,18.811,0,0,0,2.009,6.9Zm26,4.347.525-4.2a8.049,8.049,0,0,1,15.974,0l.525,4.2a15.451,15.451,0,0,1-17.023,0Zm5.06-18.154a3.452,3.452,0,1,1,3.452,3.452A3.455,3.455,0,0,1,85.565,83.839Zm15.1,15.418-.236-1.892a11.514,11.514,0,0,0-6.334-8.888,6.9,6.9,0,1,0-10.156,0A11.518,11.518,0,0,0,77.6,97.364l-.236,1.891a15.532,15.532,0,1,1,23.3,0Z" transform="translate(1510 1592)"/></g></svg>