<svg xmlns="http://www.w3.org/2000/svg" xmlns:xlink="http://www.w3.org/1999/xlink" width="289" height="236.812" viewBox="0 0 289 236.812"><defs><style>.a{fill:#f9e4eb;}.b{fill:url(#a);}</style><linearGradient id="a" x1="0.5" x2="0.5" y2="1" gradientUnits="objectBoundingBox"><stop offset="0" stop-color="#f04c40"/><stop offset="1" stop-color="#e32c6f"/></linearGradient></defs><g transform="translate(-817 -1515)"><path class="a" d="M468.706,341.375c-1.343-16.233-17.286-28.009-23.488-44.846-4.911-13.33-4.678-27.954-1.442-41.623,4.818-20.347,20.856-38.806,23.553-59.1,2.949-22.191-16.648-28.237-35.7-25A79.778,79.778,0,0,0,403.767,181c-10.818,6.606-18.26,17-30.667,21.45-32.222,11.563-49.514-15.993-73.661-28.912-15.727-8.414-40.544-5.468-53.925,6.083-20.833,17.982,7.194,41.114-9.7,60.156-3.869,4.36-9.076,7.358-14.185,10.279-19.234,10.994-37.613,22.169-41.268,45.49-3.166,20.576,7.293,42.221,24.894,54.1,8.248,5.569,18.033,9.645,22.442,18.922,2.063,4.34,3.352,9.008,5.62,13.25,5.023,9.4,14.584,15.985,24.924,19.365,21.7,7.095,47.215,4.587,69.01-1.085,20.361-5.3,37.4-20.553,59.041-21.579,15.544-.737,29.447,6.815,45.086,3.36,13.394-2.959,27.259-11.4,33.5-23.567C468.105,352.031,469.129,346.482,468.706,341.375Z" transform="translate(637.204 1346.286)"/><g transform="translate(908 1593)"><g transform="translate(0 41.351)"><path class="b" d="M105.3,254.811H95.155V193.916a1.555,1.555,0,0,0-1.569-1.54H76.856a1.555,1.555,0,0,0-1.569,1.54v60.895H63.367V211.99a1.555,1.555,0,0,0-1.569-1.54H45.068a1.555,1.555,0,0,0-1.569,1.54v42.822H31.579V220.2a1.555,1.555,0,0,0-1.569-1.54H13.28a1.555,1.555,0,0,0-1.569,1.54v34.606H1.569a1.541,1.541,0,1,0,0,3.081H105.3a1.541,1.541,0,1,0,0-3.081Zm-76.856,0H14.848V221.745H28.442v33.066Zm31.788,0H46.637V213.53H60.23Zm31.788,0H78.425V195.457H92.019v59.354Z" transform="translate(0 -192.376)"/></g><g transform="translate(1.643 0)"><path class="b" d="M108.292,1.208A4.98,4.98,0,0,0,104.426.037L91.029,1.68a4.89,4.89,0,0,0-4.271,5.387,4.906,4.906,0,0,0,5.491,4.191l1.093-.134a118.913,118.913,0,0,1-49.8,33.231c-17.223,6.058-30.628,6.576-30.758,6.581a4.826,4.826,0,1,0,.152,9.65l.151,0c.6-.018,14.806-.51,33.528-7.055A132.932,132.932,0,0,0,76.046,39.01a1.522,1.522,0,0,0,.425-2.138,1.588,1.588,0,0,0-2.179-.417A129.742,129.742,0,0,1,45.559,50.627C27.3,57.011,13.565,57.488,12.991,57.5h-.057a1.745,1.745,0,1,1-.053-3.491c.137,0,13.925-.5,31.719-6.76,14.908-5.244,36.328-15.95,53.716-37.179A1.554,1.554,0,0,0,96.9,7.583L91.861,8.2a1.8,1.8,0,0,1-1.943-1.292,1.765,1.765,0,0,1,1.5-2.172l13.4-1.643a1.785,1.785,0,0,1,2,1.732V17.97a1.78,1.78,0,0,1-3.559,0V13.985a1.564,1.564,0,0,0-1.015-1.441,1.614,1.614,0,0,0-1.771.467A120.355,120.355,0,0,1,80.627,31.971a1.521,1.521,0,0,0-.284,2.161,1.59,1.59,0,0,0,2.2.278,123.5,123.5,0,0,0,17.577-16.222,4.922,4.922,0,0,0,9.833-.217V4.826A4.791,4.791,0,0,0,108.292,1.208Z" transform="translate(-8.017 0)"/></g><path class="b" d="M216.572,248.854c-.308-.109-.623-.222-.937-.34v-5.567a5.046,5.046,0,0,1,1.413.66,1.228,1.228,0,0,0,1.478-1.962,7.5,7.5,0,0,0-2.891-1.223V239.2a1.228,1.228,0,0,0-2.457,0v1.214a6.35,6.35,0,0,0-.633.155,4.919,4.919,0,0,0-3.372,3.858,4.338,4.338,0,0,0,1.42,4.276,11.824,11.824,0,0,0,2.585,1.469v7.124a4.911,4.911,0,0,1-2.693-.987,1.228,1.228,0,1,0-1.345,2.056,7.251,7.251,0,0,0,4.038,1.389v1.27a1.228,1.228,0,0,0,2.457,0v-1.4a5.922,5.922,0,0,0,4.514-4.824,5.2,5.2,0,0,0-3.577-5.946Zm-4.463-2.087a1.914,1.914,0,0,1-.523-1.887,2.5,2.5,0,0,1,1.591-1.936v4.5A7.352,7.352,0,0,1,212.11,246.768Zm5.616,7.625a3.522,3.522,0,0,1-2.091,2.661v-5.926l.119.043A2.78,2.78,0,0,1,217.726,254.393Z" transform="translate(-145.812 -237.049)"/></g></g></svg>